<svg xmlns="http://www.w3.org/2000/svg" id="Layer_5" height="512" viewBox="0 0 64 64" width="512"><g><path d="m60 1h-56c-1.654 0-3 1.346-3 3v44c0 1.654 1.346 3 3 3h8.629c.906 1.848 2.716 3.198 4.873 3.378l6.498.542v8.08h22v-9c0-1.074-.251-2.089-.685-3h14.685c1.654 0 3-1.346 3-3v-44c0-1.654-1.346-3-3-3zm-56 2h56c.552 0 1 .448 1 1v9h-58v-9c0-.552.448-1 1-1zm20 31v2.13c-1.127 1.104-2.505 1.929-4 2.402v-.118l1.121-1.121c.567-.566.879-1.32.879-2.121v-.172c0-1.336-.877-2.471-2.086-2.857-.156-.738-.521-1.417-1.065-1.967-.066-.066-.143-.115-.212-.176h7.395c-1.226.912-2.032 2.359-2.032 4zm-7.973-3c.53 0 1.027.207 1.4.584.374.377.577.877.572 1.407l-.008 1.009h1.009c.552 0 1 .448 1 1v.172c0 .263-.106.521-.293.707l-1.121 1.121h-4.586v-4c0-1.103.897-2 2.027-2zm3.973 9.616c1.505-.39 2.926-1.079 4.174-2.01.442 2.18 1.771 4.128 3.709 5.29l.967.58-.63 2.524h-8.22zm10.78 4.384h2.439l.5 2h-3.439zm2.943-2h-3.445l-1.364-.818c-1.798-1.078-2.914-3.049-2.914-5.145v-3.037c0-1.654 1.346-3 3-3h6c1.654 0 3 1.346 3 3v3.037c0 2.096-1.116 4.066-2.913 5.145zm-15.723-15v-8.949c4.717.471 8.479 4.232 8.949 8.949zm-2 .586-.461.461c-1.834.214-3.279 1.659-3.493 3.493l-2.796 2.796c-1.427-1.744-2.25-3.958-2.25-6.336 0-5.176 3.954-9.446 9-9.949zm-4 6.828v2.251c-.473-.271-.917-.58-1.333-.918zm32 25.586h-4v-8h-2v8h-12v-7.92l-8.332-.694c-2.057-.172-3.668-1.923-3.668-3.987v-9.399h4v8.382l-1.447.724.895 1.789 1.788-.895h19.764c2.757 0 5 2.243 5 5zm16-12h-16.111c-1.263-1.235-2.988-2-4.889-2h-3.22l-.631-2.523.967-.58c2.396-1.437 3.884-4.066 3.884-6.86v-3.037c0-2.757-2.243-5-5-5h-6c0-6.617-5.383-12-12-12s-12 5.383-12 12c0 4.748 2.727 8.952 7 10.905v8.494c0 .205.037.401.058.601h-8.058c-.552 0-1-.448-1-1v-33h58v33c0 .552-.448 1-1 1z"></path><path d="m11 5h-6v6h6zm-2 4h-2v-2h2z"></path><path d="m19 5h-6v6h6zm-2 4h-2v-2h2z"></path><path d="m27 5h-6v6h6zm-2 4h-2v-2h2z"></path><path d="m59 5h-18v6h18zm-2 4h-14v-2h14z"></path><path d="m57 31h-2v14h-2v-8h-2v8h-2v-12h-2v12h-2v-16h-2v18h16v-2h-2z"></path><path d="m43 17h16v2h-16z"></path><path d="m43 21h2v2h-2z"></path><path d="m47 21h12v2h-12z"></path><path d="m43 25h16v2h-16z"></path></g></svg>