<svg xmlns="http://www.w3.org/2000/svg" id="Icons" height="512" viewBox="0 0 74 74" width="512"><path d="m28.93 72a1 1 0 0 1 -.847-.467l-4.683-7.445-8.1 3.418a1 1 0 0 1 -1.314-1.3l7.323-17.848a1 1 0 1 1 1.85.759l-6.4 15.6 6.649-2.806a1 1 0 0 1 1.235.389l4.105 6.525 6.4-15.472a1 1 0 1 1 1.849.765l-7.137 17.26a1 1 0 0 1 -.839.615z"></path><path d="m61.891 25.23a1 1 0 0 1 -.809-.411 11.543 11.543 0 0 1 -1.645-2.837 1 1 0 0 1 1.886-.665 9.923 9.923 0 0 0 1.377 2.324 1 1 0 0 1 -.807 1.589z"></path><path d="m29.789 56.232a4.869 4.869 0 0 1 -1.529-.232c-1.829-.595-2.984-2.191-4.1-3.735a11.2 11.2 0 0 0 -2.167-2.486 3.083 3.083 0 0 0 -.264-.174 13.228 13.228 0 0 0 -2.821-1.15c-1.8-.585-3.658-1.19-4.776-2.726-1.1-1.515-1.106-3.463-1.108-5.346a11.452 11.452 0 0 0 -.314-3.373 11.022 11.022 0 0 0 -1.667-2.779c-1.132-1.549-2.3-3.15-2.3-5.111s1.172-3.572 2.3-5.124a11 11 0 0 0 1.665-2.776 11.438 11.438 0 0 0 .314-3.37c0-1.881.005-3.827 1.107-5.347 1.12-1.539 2.982-2.144 4.784-2.73a11.346 11.346 0 0 0 3.078-1.322 11.2 11.2 0 0 0 2.167-2.486c1.117-1.544 2.272-3.14 4.1-3.736 1.753-.572 3.594.022 5.373.6a11.651 11.651 0 0 0 3.369.751 11.651 11.651 0 0 0 3.367-.754c1.779-.575 3.62-1.168 5.373-.6 1.826.591 2.98 2.182 4.095 3.72.4.546.769 1.06 1.164 1.52a1 1 0 1 1 -1.518 1.3c-.447-.521-.863-1.094-1.264-1.647-.97-1.338-1.887-2.6-3.095-2.993-1.14-.371-2.6.1-4.141.6a13.249 13.249 0 0 1 -3.981.854 13.249 13.249 0 0 1 -3.981-.851c-1.543-.5-3-.967-4.14-.6-1.21.394-2.128 1.663-3.1 3.006a12.712 12.712 0 0 1 -2.611 2.931 12.9 12.9 0 0 1 -3.636 1.607c-1.567.51-3.047.991-3.783 2-.722.995-.724 2.54-.726 4.175a13.03 13.03 0 0 1 -.412 3.986 12.555 12.555 0 0 1 -1.951 3.336c-.988 1.352-1.92 2.63-1.92 3.945s.931 2.582 1.917 3.932a12.539 12.539 0 0 1 1.954 3.339 13.047 13.047 0 0 1 .412 3.989c0 1.636 0 3.182.726 4.171.735 1.012 2.213 1.493 3.777 2a14.859 14.859 0 0 1 3.23 1.337 4.937 4.937 0 0 1 .413.272 12.731 12.731 0 0 1 2.61 2.931c.972 1.343 1.89 2.612 3.1 3.006 1.138.371 2.6-.1 4.14-.6a13.278 13.278 0 0 1 3.981-.842 13.278 13.278 0 0 1 3.981.85c1.545.5 3 .971 4.14.6 1.21-.394 2.128-1.663 3.1-3.006a12.712 12.712 0 0 1 2.611-2.931 5.128 5.128 0 0 1 .436-.287 14.878 14.878 0 0 1 3.206-1.322c1.564-.509 3.042-.99 3.777-2 .722-.99.724-2.536.726-4.172a13.047 13.047 0 0 1 .412-3.989 12.414 12.414 0 0 1 1.943-3.325 20.867 20.867 0 0 0 1.2-1.768 1 1 0 0 1 1.73 1 22.454 22.454 0 0 1 -1.318 1.943 10.852 10.852 0 0 0 -1.655 2.763 11.438 11.438 0 0 0 -.315 3.375c0 1.883 0 3.831-1.108 5.346-1.118 1.536-2.977 2.141-4.776 2.726a13.269 13.269 0 0 0 -2.8 1.135c-.114.067-.2.128-.287.188a11.209 11.209 0 0 0 -2.168 2.487c-1.117 1.544-2.272 3.14-4.1 3.735-1.756.571-3.595-.022-5.373-.6a11.651 11.651 0 0 0 -3.362-.748 11.651 11.651 0 0 0 -3.367.754 12.909 12.909 0 0 1 -3.844.828z"></path><path d="m59.4 14.681a1 1 0 0 1 -.92-.607 1.874 1.874 0 0 0 -.225-.39 3.819 3.819 0 0 0 -1.455-1.127 1 1 0 1 1 .885-1.794 5.745 5.745 0 0 1 2.184 1.737 3.853 3.853 0 0 1 .45.785 1 1 0 0 1 -.919 1.394z"></path><path d="m45.07 72h-.085a1 1 0 0 1 -.839-.615l-7.137-17.26a1 1 0 0 1 1.849-.765l6.4 15.472 4.101-6.532a1 1 0 0 1 1.235-.389l6.649 2.806-6.4-15.6a1 1 0 1 1 1.85-.759l7.323 17.848a1 1 0 0 1 -1.314 1.3l-8.1-3.418-4.683 7.445a1 1 0 0 1 -.849.467z"></path><path d="m37 47.233a18.117 18.117 0 1 1 18.117-18.116 18.137 18.137 0 0 1 -18.117 18.116zm0-34.233a16.117 16.117 0 1 0 16.117 16.117 16.135 16.135 0 0 0 -16.117-16.117z"></path><path d="m42.915 39.218a1.012 1.012 0 0 1 -.466-.114l-5.449-2.865-5.449 2.861a1 1 0 0 1 -1.451-1.051l1.041-6.068-4.409-4.3a1 1 0 0 1 .554-1.706l6.093-.886 2.724-5.52a1.041 1.041 0 0 1 1.794 0l2.724 5.52 6.093.886a1 1 0 0 1 .554 1.706l-4.409 4.3 1.041 6.068a1 1 0 0 1 -.985 1.169zm-5.915-5.109a.991.991 0 0 1 .465.115l4.121 2.166-.786-4.59a1 1 0 0 1 .288-.885l3.334-3.249-4.609-.666a1 1 0 0 1 -.753-.547l-2.06-4.178-2.06 4.175a1 1 0 0 1 -.753.547l-4.608.67 3.334 3.249a1 1 0 0 1 .288.885l-.787 4.589 4.121-2.166a.991.991 0 0 1 .465-.115z"></path></svg>