<?xml version="1.0" encoding="utf-8"?>
<svg version="1.1" xmlns:xlink="http://www.w3.org/1999/xlink" width="174px" height="22px" xmlns="http://www.w3.org/2000/svg">
  <g transform="matrix(1 0 0 1 -361 -480 )">
    <path d="M 172.993055555556 10.2704811443433  C 173.664351851852 10.4612050281751  174 10.6805374945817  174 10.9284785435631  C 174 11.1954919809276  173.664351851852 11.4243606415258  172.993055555556 11.6150845253576  L 134.326388888889 21.742522756827  C 133.252314814815 22.0095361941916  132.077546296296 22.0667533593411  130.802083333333 21.9141742522757  C 129.52662037037 21.742522756827  128.888888888889 21.4659731252709  128.888888888889 21.0845253576073  L 128.888888888889 14.6762028608583  L 3.22222222222222 14.6762028608583  C 2.28240740740741 14.6762028608583  1.51041666666667 14.5903771131339  0.90625 14.4187256176853  C 0.302083333333333 14.2470741222367  0 14.0277416558301  0 13.7607282184655  L 0 8.26788036410923  C 0 8.00086692674469  0.302083333333333 7.7815344603381  0.90625 7.60988296488947  C 1.51041666666667 7.43823146944083  2.28240740740741 7.35240572171652  3.22222222222222 7.35240572171652  L 128.888888888889 7.35240572171652  L 128.888888888889 0.944083224967491  C 128.888888888889 0.543563068920677  129.52662037037 0.267013437364541  130.802083333333 0.11443433029909  C 132.077546296296 -0.0381447767663659  133.252314814815 0.00953619419158902  134.326388888889 0.257477243172952  L 172.993055555556 10.2704811443433  Z " fill-rule="nonzero" fill="#000000" stroke="none" transform="matrix(1 0 0 1 361 480 )" />
  </g>
</svg>